<svg width="50" height="51" viewBox="0 0 50 51" fill="none" xmlns="http://www.w3.org/2000/svg">
<path d="M7.5196 0.59705C6.57236 0.943951 5.89855 1.62691 5.24428 2.9278C4.72671 3.93599 4.69742 4.14196 4.99038 4.55391C5.14662 4.77072 5.27357 4.83576 5.55677 4.83576C6.0255 4.83576 6.14269 4.71651 6.62119 3.8059C7.23641 2.61342 7.69538 2.23399 8.50591 2.23399C9.21878 2.23399 9.91212 2.75435 10.1465 3.45899C10.3027 3.9143 10.2734 4.69483 10.0879 5.0851C9.42385 6.52691 4.80483 15.2645 4.5607 15.5355C3.49628 16.7822 1.56274 15.8716 1.56274 14.1262C1.56274 13.5083 1.49438 13.6492 3.37909 10.0285C4.96108 7.0039 5.05873 6.72204 4.69742 6.23421C4.46305 5.90899 3.88689 5.88731 3.61346 6.19085C3.35956 6.48355 0.303004 12.3592 0.136993 12.9012C-0.0680793 13.53 -0.0387833 14.7984 0.205351 15.503C0.45925 16.2835 1.14283 17.1074 1.8264 17.476C2.48068 17.8338 3.6037 17.9422 4.29704 17.7145C4.72671 17.5627 4.74624 17.5736 5.28334 17.9205L5.8302 18.2891L5.88879 19.178C5.94738 20.2946 7.98834 28.8154 8.34966 29.52C9.19925 31.1245 11.084 31.7098 12.6464 30.8643C14.121 30.0621 14.7264 28.3818 14.2675 26.4196C14.1503 25.9209 14.0722 25.4873 14.1015 25.4656C14.1308 25.4331 14.5214 25.6499 14.9803 25.9318L15.8104 26.463L15.8397 31.8291C15.8788 37.1194 15.8788 37.2061 16.1034 37.8999C16.5721 39.3525 17.2752 40.545 18.2029 41.4231L18.7498 41.9543V42.8541V43.7539L18.3592 44.1441C17.8709 44.632 17.4021 45.6835 17.324 46.464C17.2459 47.2662 17.49 48.3178 17.9197 49.0224C18.281 49.6078 18.5545 49.868 19.238 50.2691L19.6775 50.5293H25.8297H31.9818L32.431 50.28C33.1537 49.8897 33.6517 49.3368 34.0033 48.5454C34.2962 47.8842 34.3255 47.7324 34.3255 46.8435C34.3157 45.9979 34.2864 45.7919 34.0521 45.2716C33.8958 44.9463 33.6029 44.4802 33.388 44.2417C33.0267 43.8189 33.0072 43.7647 33.0072 43.1034V42.3988L33.4173 42.1386C33.9154 41.8242 35.5364 40.1005 35.6536 39.7753C35.7513 39.4718 35.5852 38.9081 35.3509 38.7671C35.2532 38.7021 35.0286 38.6587 34.8626 38.6587C34.6185 38.6587 34.3939 38.8322 33.6615 39.6019C33.1537 40.1439 32.4994 40.7076 32.1674 40.9136C31.8353 41.0979 31.5326 41.3364 31.5033 41.434C31.474 41.5315 31.4447 41.9543 31.4447 42.3771V43.1576L25.8785 43.1251L20.3122 43.1034V42.1061V41.1087L19.8533 40.6751C18.8962 39.7536 18.3006 39.0056 17.9978 38.3227C17.3729 36.9459 17.3826 37.1519 17.3826 28.2733C17.3826 19.449 17.3533 19.9152 17.949 19.4165C18.1346 19.2647 18.3689 19.1997 18.7205 19.1997C19.1892 19.1997 19.2673 19.243 19.5994 19.6116L19.9704 20.0127L20.0193 24.3599L20.0681 28.707L20.3025 28.9129C20.5954 29.184 21.0056 29.1731 21.3278 28.8913L21.5817 28.6745V23.5576C21.5817 18.7661 21.6012 18.4083 21.7673 17.9855C22.2458 16.8364 23.6617 16.8473 24.1598 17.9964C24.2965 18.3216 24.316 18.9937 24.316 23.5143V28.6745L24.5699 28.8913C24.9215 29.1948 25.3414 29.184 25.6343 28.8479L25.8785 28.5877V22.8855C25.8785 16.7388 25.8687 16.8906 26.396 16.3486C26.9234 15.8065 27.939 15.9908 28.3296 16.6955C28.5054 17.0099 28.5151 17.3459 28.5151 22.6253C28.5151 28.3926 28.5444 28.7937 28.9057 29.0105C29.2182 29.1948 29.6381 29.1298 29.8627 28.8696C30.0678 28.6311 30.0678 28.566 30.0971 23.4276C30.1264 17.5302 30.0971 17.7362 30.9369 17.2917C31.4252 17.0207 31.8646 17.0749 32.2748 17.4327C32.8216 17.9096 32.8119 17.747 32.8119 25.9209V33.466L33.056 33.7262C33.2025 33.8997 33.3978 33.9972 33.6029 33.9972C33.8665 33.9972 34.1107 33.7804 35.3411 32.447C36.5618 31.1136 36.8254 30.8751 37.2161 30.7667C37.8313 30.5933 38.3195 30.7667 38.8273 31.3304C39.1203 31.6556 39.2473 31.905 39.3058 32.2302C39.423 33.0649 39.257 33.3685 37.6848 35.1463C36.3665 36.6315 36.2298 36.8158 36.2298 37.1627C36.2298 37.6505 36.4739 37.9866 36.8938 38.0733C37.2063 38.1384 37.2649 38.0842 38.7785 36.4256C40.6828 34.3225 40.8683 33.9756 40.8683 32.5879C40.8585 31.4714 40.6535 30.8968 39.9894 30.1054C39.218 29.184 38.1438 28.7937 37.0305 29.0214C36.2591 29.184 35.7903 29.4767 35.0384 30.2897L34.3743 30.9944V29.6501V28.3059L37.509 26.3003C39.2375 25.1946 40.8878 24.078 41.1906 23.807C42.3722 22.7554 43.1925 21.2703 43.5831 19.4924L43.8077 18.4842L44.5205 18.018L45.2334 17.5411L45.6826 17.7037C46.3857 17.9422 47.499 17.8446 48.1728 17.476C48.8564 17.1074 49.5399 16.2835 49.7938 15.503C50.0282 14.8309 50.0673 13.5625 49.8915 12.9554C49.6864 12.2833 44.2959 2.01718 43.9151 1.57271C43.71 1.34506 43.3194 1.01984 43.0362 0.846386C42.5772 0.586208 42.4308 0.553688 41.5031 0.553688C40.6144 0.553688 40.4191 0.586208 40.0578 0.803024C39.1105 1.36674 38.3684 2.41829 38.2219 3.39395C38.1731 3.77337 38.1047 3.8601 37.5969 4.16364L37.0305 4.51054L36.6106 4.25037C36.0149 3.89262 35.4388 3.69749 31.2397 2.45081C28.6909 1.7028 27.3921 1.36674 27.021 1.36674C24.1598 1.36674 22.7047 5.23687 24.7066 7.5351C25.1851 8.07713 25.6148 8.32647 26.6402 8.64085L27.4409 8.87934L26.982 9.17204L26.523 9.46474L25.3902 8.73841C20.9372 5.85479 19.1111 4.7382 18.4861 4.52138C17.1385 4.04439 15.4002 4.04439 14.0722 4.54306L13.3593 4.80324L12.5976 4.32625C11.8847 3.88178 11.8359 3.82758 11.7773 3.41563C11.6406 2.45081 10.9277 1.4101 10.0391 0.878906C9.58986 0.607891 9.39455 0.553688 8.64262 0.532005C8.16412 0.521164 7.65632 0.542847 7.5196 0.59705ZM42.2159 2.38577C42.3917 2.46165 42.6456 2.66762 42.7921 2.84107C43.0069 3.10125 47.6845 11.9689 48.2509 13.2048C48.4853 13.7143 48.4951 14.5273 48.2607 15.0152C47.7236 16.2077 46.2393 16.4787 45.4385 15.5355C45.1944 15.2537 40.5558 6.49439 39.9015 5.06342C39.6867 4.61895 39.6769 3.77337 39.882 3.35059C40.0578 2.96032 40.507 2.49417 40.8195 2.35324C41.171 2.20147 41.8546 2.21231 42.2159 2.38577ZM31.1518 4.23952C34.5599 5.24771 35.1263 5.44284 36.0247 5.94151L37.0403 6.51607L37.7043 6.11496L38.3684 5.71386L38.5539 6.06076C39.2863 7.40501 43.8467 16.2402 43.8467 16.3161C43.8467 16.3703 43.5245 16.6196 43.1241 16.8689C42.3233 17.3784 42.2355 17.5194 42.1476 18.495C42.0206 19.8826 41.2101 21.5088 40.214 22.3977C39.7453 22.8205 34.5989 26.1919 34.4329 26.1919C34.4036 26.1919 34.3743 24.3707 34.3743 22.1484C34.3743 19.8501 34.3353 17.953 34.2767 17.7362C34.1302 17.1616 33.6517 16.3703 33.2318 16.0342C32.9095 15.774 32.8607 15.6656 32.8314 15.2428C32.7533 13.7143 32.2455 13.0964 29.9116 11.622C28.9839 11.0366 28.2222 10.5271 28.2222 10.4838C28.2222 10.4404 28.603 10.1694 29.0718 9.87669C30.0581 9.23708 30.2729 9.02027 30.2729 8.61916C30.2729 8.00124 29.9702 7.80611 28.1245 7.26408C27.187 6.99306 26.2789 6.66784 26.1031 6.53775C25.0582 5.75722 25.1363 3.97935 26.2496 3.31807C26.4449 3.20966 26.7671 3.11209 26.9527 3.10125C27.148 3.10125 29.0327 3.61076 31.1518 4.23952ZM12.8417 6.53775C13.1249 6.74372 13.3788 6.7112 14.1893 6.35346C15.4881 5.7789 16.826 5.73554 18.0857 6.22337C18.7693 6.49439 30.644 14.0829 30.9272 14.4406C31.3666 14.9827 31.3178 15.4488 30.8197 15.4596C30.7123 15.4596 30.4291 15.5681 30.1948 15.6981C29.8042 15.9041 29.7553 15.9041 29.6772 15.7523C29.4624 15.3296 29.0815 14.9393 28.603 14.6466C27.978 14.278 26.9331 14.1588 26.3277 14.3973L25.9468 14.549L24.5309 13.6492C23.7496 13.1506 23.0465 12.7495 22.9782 12.7495C22.7536 12.7495 22.2946 13.053 22.2262 13.2373C22.0016 13.8986 22.2262 14.2021 23.5836 15.0802C24.7555 15.8282 24.9996 16.0776 24.1598 15.6548C23.5055 15.3296 22.402 15.3187 21.7673 15.6439C21.1325 15.9583 20.654 16.4678 20.3513 17.1508C20.1657 17.5736 20.0486 17.7253 19.9411 17.682C18.7302 17.1725 17.4803 17.4218 16.6502 18.3324C15.9178 19.1563 15.869 19.3515 15.8397 22.0291L15.8104 24.4357L14.3847 23.5251C13.5937 23.0265 12.8613 22.6145 12.7441 22.6145C12.6269 22.6145 12.412 22.7121 12.2656 22.8422C11.914 23.1565 11.9335 23.4926 12.4511 25.6391C12.6952 26.6364 12.8906 27.5687 12.8906 27.7205C12.8808 28.1216 12.5585 28.8371 12.2558 29.0972C11.4355 29.8127 10.2539 29.5851 9.73634 28.6094C9.63869 28.4143 9.0723 26.2678 8.48637 23.8395C7.53913 19.9152 7.42195 19.3189 7.42195 18.5276C7.42195 18.0397 7.37312 17.5194 7.31453 17.3784C7.25594 17.2267 6.95321 16.9557 6.63096 16.7605C6.31847 16.5654 6.07433 16.3703 6.09386 16.3377C7.21688 14.2238 11.5234 5.86563 11.5234 5.78974C11.5234 5.70302 12.3242 6.14749 12.8417 6.53775ZM31.474 44.9572C32.2846 45.2065 32.89 46.2147 32.7826 47.1253C32.7142 47.7216 32.3041 48.3612 31.8353 48.6322C31.4643 48.8381 31.2787 48.849 25.8101 48.849H20.1657L19.8044 48.5997C19.072 48.101 18.7302 47.2229 18.9353 46.3773C19.072 45.8136 19.6775 45.1089 20.1364 44.9572C20.5954 44.8162 30.9955 44.8054 31.474 44.9572Z" fill="#6B7385"/>
</svg>
