<svg width="46" height="51" viewBox="0 0 46 51" fill="none" xmlns="http://www.w3.org/2000/svg">
<path d="M5.81246 0.617031C4.44527 1.04672 3.39058 2.14047 3.03902 3.50766C2.81441 4.36703 2.80465 13.9764 3.02925 14.8358C3.34175 16.037 4.06441 16.9061 5.22652 17.4627L5.86129 17.7655L9.10347 17.7948C12.2578 17.8241 12.3554 17.8143 12.5507 17.619C12.7558 17.4139 12.8144 16.9452 12.6484 16.6424C12.4628 16.3006 12.0234 16.2518 9.13277 16.2518H6.3398L5.82222 15.9979C5.22652 15.6952 4.70894 15.0604 4.55269 14.4256C4.48433 14.162 4.44527 12.2479 4.44527 9.14242C4.44527 3.79086 4.45504 3.64437 5.03121 2.95102C5.19722 2.7557 5.57808 2.4725 5.89058 2.31625L6.44722 2.04281L21.6328 2.01352L36.8086 1.99398L37.0332 1.77914C37.3164 1.51547 37.3261 1.03695 37.0625 0.743984L36.8574 0.52914L21.457 0.538906C12.9902 0.538906 5.94918 0.577969 5.81246 0.617031Z" fill="#6B7385"/>
<path d="M39.0254 0.734375C38.7715 1.01758 38.7617 1.49609 39.0059 1.76953C39.1719 1.94531 39.3379 1.97461 40.5098 2.01367C41.6914 2.05273 41.877 2.08203 42.375 2.32617C42.668 2.47266 43.0488 2.75586 43.2149 2.95117C43.791 3.64453 43.8008 3.79102 43.8008 9.16211C43.8008 12.4336 43.7617 14.1816 43.6934 14.4453C43.5274 15.0312 43.0684 15.627 42.5508 15.9297L42.0918 16.2031L32.0527 16.252L22.0039 16.3008L21.7695 16.5742C21.4766 16.916 21.4668 17.2188 21.7402 17.5605L21.9453 17.8145L32.1602 17.7949L42.3848 17.7656L43.0195 17.4629C44.1816 16.9062 44.9043 16.0371 45.2168 14.8359C45.4316 13.9766 45.4316 4.36719 45.2168 3.50781C44.9141 2.33594 44.1426 1.4082 43.0391 0.861328C42.5117 0.597656 42.4043 0.578125 40.8613 0.548828C39.2695 0.509766 39.2305 0.519531 39.0254 0.734375Z" fill="#6B7385"/>
<path d="M11.0664 5.34362C10.7344 5.60729 10.6953 5.97838 10.6953 8.6737C10.6953 11.4276 10.7441 11.8671 11.0859 12.0526C11.3301 12.1893 13.5859 12.1796 14.0645 12.0428C14.582 11.8964 15.3242 11.1542 15.4707 10.6366C15.6855 9.85534 15.5684 9.16198 15.1191 8.55651C14.9043 8.27331 14.8945 8.20495 14.9922 7.89245C15.1777 7.32604 15.0703 6.54479 14.7383 6.07604C14.2695 5.41198 13.8789 5.26549 12.4531 5.2362C11.5449 5.21667 11.1934 5.24596 11.0664 5.34362ZM13.3711 6.93542C13.5566 7.1112 13.5762 7.37487 13.4102 7.54088C13.3418 7.60924 13.0586 7.65807 12.7754 7.65807H12.2578V7.21862V6.77917H12.7363C13.0488 6.77917 13.2734 6.83776 13.3711 6.93542ZM13.8301 9.50378C14.0742 9.80651 14.0645 10.0799 13.8008 10.3632C13.625 10.5585 13.498 10.5878 12.9219 10.5878H12.2578V9.8944V9.20104L12.9512 9.2401C13.5371 9.2694 13.6738 9.31823 13.8301 9.50378Z" fill="#6B7385"/>
<path d="M33.1562 5.41211C32.9707 5.59766 32.9609 5.73438 32.9609 8.61523C32.9609 11.1055 32.9902 11.6523 33.1074 11.8281C33.4102 12.2578 34.1914 12.1895 34.416 11.7012C34.4746 11.5645 34.5234 11.1836 34.5234 10.8516V10.2461L35.2852 10.9883C36.2324 11.9258 36.5449 12.1504 36.8379 12.1504C37.1895 12.1504 37.5508 11.7402 37.5508 11.3398C37.5508 11.0371 37.4141 10.8711 36.3105 9.76758L35.0605 8.53711L35.4512 8.17578C37.2676 6.51562 37.3555 6.41797 37.3555 6.07617C37.3555 5.4707 36.877 5.10938 36.3594 5.30469C36.2324 5.35352 35.793 5.70508 35.3828 6.08594C34.9727 6.4668 34.6211 6.7793 34.5918 6.7793C34.5723 6.7793 34.5234 6.51562 34.5039 6.19336C34.4551 5.4707 34.25 5.2168 33.7227 5.2168C33.4785 5.2168 33.2832 5.28516 33.1562 5.41211Z" fill="#6B7385"/>
<path d="M19.0938 5.59771C18.2441 5.86138 17.3066 6.69146 16.916 7.54107C16.7402 7.91216 16.7012 8.1856 16.7012 8.92779C16.7012 9.7481 16.7305 9.92388 16.9746 10.4122C17.668 11.8184 19.1426 12.5801 20.6953 12.336C22.7266 12.004 24.0254 9.93365 23.4297 7.95123C23.127 6.9356 22.3359 6.06646 21.3789 5.70513C20.8223 5.50005 19.6016 5.44146 19.0938 5.59771ZM20.8711 7.16998C20.9102 7.16998 21.1055 7.31646 21.3008 7.48248C22.1797 8.25396 22.2383 9.40631 21.457 10.2266C21.0664 10.6368 20.6758 10.8126 20.1191 10.8126C18.7324 10.8126 17.7949 9.35748 18.4004 8.15631C18.8301 7.32623 19.6406 6.9063 20.4609 7.09185C20.6465 7.13091 20.832 7.16998 20.8711 7.16998Z" fill="#6B7385"/>
<path d="M26.7402 5.70508C26.0078 5.99805 25.3145 6.66211 24.9336 7.44336C24.6406 8.0293 24.6113 8.17578 24.6113 8.92773C24.6211 10.0215 24.9434 10.7637 25.7051 11.4668C26.3887 12.0918 27.1113 12.3652 28.0781 12.3652C30.1191 12.3652 31.584 10.8027 31.4766 8.75195C31.418 7.46289 30.7539 6.41797 29.6211 5.83203C28.9082 5.4707 27.502 5.40234 26.7402 5.70508ZM28.9766 7.29688C29.8262 7.76563 30.168 8.86914 29.7383 9.75781C29.1816 10.9102 27.6191 11.1836 26.7402 10.2754C25.9297 9.43555 25.9395 8.39063 26.7598 7.58984C27.4141 6.96484 28.1855 6.86719 28.9766 7.29688Z" fill="#6B7385"/>
<path d="M16.6328 13.0291C15.6367 13.1951 14.7968 13.8494 14.3671 14.7772C14.1718 15.1971 14.1621 15.4022 14.1328 18.1756L14.1035 21.1248L13.7031 20.9783C12.7753 20.6561 11.5449 20.8612 10.7246 21.4862L10.4023 21.7303L10.041 21.4373C9.0058 20.6073 7.35541 20.6268 6.23236 21.4862L5.9101 21.7303L5.54877 21.4373C5.03119 21.0272 4.43549 20.8416 3.61518 20.8416C2.42377 20.8416 1.39838 21.4959 0.890568 22.5897C0.695255 23.0194 0.68549 23.2244 0.656193 26.5643C0.626896 29.8358 0.636661 30.0994 0.802677 30.3045C1.05658 30.6073 1.60346 30.6756 1.90619 30.4315L2.15033 30.2362L2.19916 26.7791C2.24799 23.3612 2.24799 23.3319 2.4726 23.0096C3.07807 22.1698 4.24018 22.1795 4.87494 23.0194C5.07026 23.283 5.08002 23.4491 5.12885 25.8221C5.18744 28.6346 5.17768 28.6151 5.83197 28.7225C6.12494 28.7616 6.23236 28.7323 6.43744 28.5272L6.69135 28.2733V25.9002C6.69135 23.6248 6.70111 23.5076 6.91596 23.1463C7.45307 22.1893 8.6933 22.1209 9.36713 23.0194C9.56244 23.283 9.57221 23.4491 9.62104 25.8221C9.67963 28.6346 9.66986 28.6151 10.3242 28.7225C10.6171 28.7616 10.7246 28.7323 10.9296 28.5272L11.1835 28.2733V25.9002C11.1835 23.6248 11.1933 23.5076 11.4081 23.1463C11.9453 22.1893 13.1855 22.1209 13.8593 23.0194C14.0546 23.283 14.0644 23.4491 14.1132 25.8221C14.1718 28.6346 14.1621 28.6151 14.8163 28.7225C15.1093 28.7616 15.2167 28.7323 15.4218 28.5272L15.6757 28.2733V22.0037C15.6757 16.4276 15.6953 15.7049 15.832 15.4119C16.0371 14.992 16.3691 14.7186 16.8671 14.5819C17.2089 14.494 17.3163 14.5135 17.707 14.7088C17.9609 14.8358 18.2636 15.0799 18.3808 15.2655L18.6054 15.5975V23.6834C18.6054 29.4842 18.6347 31.8377 18.7128 32.0135C18.8593 32.3162 19.2988 32.5116 19.621 32.4041C19.748 32.3553 20.7929 31.4471 21.9355 30.3826C23.0781 29.3182 24.1132 28.4002 24.2499 28.3514C24.8163 28.1366 25.539 28.6444 25.539 29.2498C25.539 29.4354 25.0019 30.5975 24.0742 32.3944C22.5312 35.3924 22.4335 35.7049 22.8046 36.076C23.0488 36.3201 23.5859 36.3299 23.8593 36.0955C23.9667 36.0076 24.7382 34.5819 25.5781 32.9315C27.0136 30.1092 27.1015 29.9139 27.1015 29.3866C27.1015 28.6053 26.9355 28.1268 26.4863 27.619C25.9101 26.9549 25.4413 26.7498 24.5624 26.7596C23.5663 26.7596 23.3222 26.9061 21.623 28.4881L20.2167 29.8065L20.1679 22.4627L20.1191 15.1287L19.8554 14.6307C19.2402 13.4686 17.9316 12.8143 16.6328 13.0291Z" fill="#6B7385"/>
<path d="M33.3223 20.3046C32.209 21.1445 32.0625 21.4277 32.4824 21.955C32.834 22.3945 33.2637 22.3163 34.2012 21.623C35.3633 20.7734 35.5488 20.3925 35.0605 19.914C34.6504 19.4941 34.289 19.582 33.3223 20.3046Z" fill="#6B7385"/>
<path d="M41.0175 19.914C40.5293 20.3925 40.7246 20.8027 41.8281 21.5937C42.8242 22.3163 43.2441 22.3945 43.5957 21.955C44.0156 21.4179 43.8398 21.0859 42.6582 20.2265C41.7597 19.5917 41.4082 19.5136 41.0175 19.914Z" fill="#6B7385"/>
<path d="M37.4531 21.0565C37.2773 21.242 37.2578 21.3983 37.2578 22.453C37.2578 23.7616 37.3457 24.0057 37.834 24.1131C38.1562 24.1815 38.6641 23.9666 38.7617 23.7225C38.8691 23.4393 38.8301 21.4276 38.7129 21.203C38.5566 20.91 38.4395 20.8416 38.0195 20.8416C37.7656 20.8416 37.5898 20.91 37.4531 21.0565Z" fill="#6B7385"/>
<path d="M0.880856 32.414L0.636715 32.6484V37.4726C0.636715 42.9902 0.597652 42.6777 1.51562 44.2792L2.10156 45.3046V47.6288C2.10156 48.957 2.14062 50.0312 2.19921 50.1386C2.32617 50.3828 2.83398 50.539 3.11718 50.4316C3.64453 50.2363 3.66406 50.1093 3.66406 47.3652V44.8359L2.96093 43.6054L2.24804 42.3847L2.21875 37.5019C2.18945 32.6581 2.18945 32.6191 1.98437 32.3945C1.6914 32.082 1.19336 32.0917 0.880856 32.414Z" fill="#6B7385"/>
<path d="M21.3496 37.7949C21.2422 37.9316 20.8808 38.5859 20.5488 39.2304C20.2168 39.8847 19.875 40.5097 19.7871 40.6171C19.6992 40.7343 18.5761 41.7988 17.2871 42.9999C15.998 44.2011 14.8847 45.2851 14.8164 45.412C14.7187 45.5976 14.6992 46.1933 14.7187 47.8827C14.748 49.9238 14.7675 50.1386 14.9336 50.3242C15.1875 50.5976 15.7929 50.6074 16.0664 50.3339C16.2519 50.1484 16.2617 50.0019 16.2715 48.1074L16.2812 46.0859L18.0781 44.4257C21.164 41.5839 21.0078 41.7597 21.9062 40.0702C22.3945 39.1425 22.707 38.4394 22.707 38.2538C22.707 37.5898 21.7597 37.2675 21.3496 37.7949Z" fill="#6B7385"/>
</svg>
